<?xml version="1.0" encoding="UTF-8"?>
<!DOCTYPE svg PUBLIC "-//W3C//DTD SVG 1.1//EN" "http://www.w3.org/Graphics/SVG/1.1/DTD/svg11.dtd">
<!-- Creator: CorelDRAW 2021 (64-Bit) -->
<svg xmlns="http://www.w3.org/2000/svg" xml:space="preserve" width="1134px" height="387px" version="1.1" style="shape-rendering:geometricPrecision; text-rendering:geometricPrecision; image-rendering:optimizeQuality; fill-rule:evenodd; clip-rule:evenodd"
viewBox="0 0 1329.53 453.9"
 xmlns:xlink="http://www.w3.org/1999/xlink"
 xmlns:xodm="http://www.corel.com/coreldraw/odm/2003">
 <defs>
  <style type="text/css">
   <![CDATA[
    .str0 {stroke:#FEFEFE;stroke-width:9.77;stroke-miterlimit:22.9256}
    .fil0 {fill:none}
   ]]>
  </style>
 </defs>
 <g id="Слой_x0020_1">
  <metadata id="CorelCorpID_0Corel-Layer"/>
  <path class="fil0 str0" d="M4.88 5.89l0 442.11m123.51 -287.76l103.05 -140.6 0 140.6 7.41 0 0 -150.56 -9.12 0 -102.58 138.66 0 -138.66 -7.41 0 0 150.56 8.65 0zm147.78 -132.28l4.16 4.27c12.39,-12.17 27.37,-18.66 45.04,-18.66 10.77,0 21.22,2.37 30.12,8.64 8.46,5.96 12.76,14.27 12.76,24.62 0,10.41 -3.95,18.99 -12.72,24.78 -9.02,5.95 -19.72,8 -30.39,8l-29.4 0 0 6.24 29.4 0c11.3,0 23.09,1.96 32.64,8.36 9.18,6.16 13.05,15.4 13.05,26.3 0,10.85 -3.93,20.02 -12.52,26.76 -9.29,7.27 -21.15,9.55 -32.7,9.55 -10.21,0 -20.14,-1.93 -29.35,-6.4 -7.19,-3.5 -13.62,-8.15 -18.69,-14.27l-4.75 4.26c5.26,6.74 12.32,11.77 19.97,15.56 10.24,5.08 21.45,7.08 32.82,7.08 13.89,0 27.97,-2.85 38.93,-11.87 9.47,-7.79 14.17,-17.7 14.17,-29.96 0,-9.93 -3,-18.62 -10.59,-25.21 -6.48,-5.63 -14.01,-9.82 -22.66,-10.78l-20.27 -2.26 20.07 -3.64c4.88,-0.89 9.54,-2.49 13.95,-4.77 4.85,-2.5 8.74,-6.69 11.82,-11.13 3.7,-5.33 5.33,-11.3 5.33,-17.78 0,-11.73 -4.72,-20.88 -14.24,-27.73 -10.64,-7.65 -23.07,-10.58 -36.04,-10.58 -10.34,0 -20.43,1.86 -29.82,6.28 -7.56,3.56 -14.42,8.24 -20.09,14.34zm205.32 -18.28l-7.4 0 0 37.15c0,13.2 3.31,25.69 12.65,35.35 9.75,10.09 23.59,13.05 37.16,13.05 13.07,0 26.04,-1.83 38.69,-5.07l3.72 -0.95 0 71.03 7.41 0 0 -150.56 -7.41 0 0 73.73 -2.25 0.57c-12.83,3.29 -25.97,5.02 -39.22,5.02 -11.64,0 -23.38,-2.61 -31.99,-10.93 -8.56,-8.27 -11.36,-19.67 -11.36,-31.24l0 -37.15zm251.18 0l-8.68 0 -55.3 104.54 -55.3 -104.54 -8.69 0 59.63 110.59 -6.15 11.51c-3.32,6.2 -8.06,14.55 -13.29,19.33 -4.48,4.09 -10.1,5.71 -16.09,5.71 -8.73,0 -15.85,-3.87 -21.61,-9.92l-3.76 5.22c6.53,7.85 15.47,10.93 25.84,10.93 7.13,0 14.12,-1.58 19.65,-6.32 6.42,-5.51 11.74,-14.07 15.74,-21.45l68.01 -125.6zm38.4 150.56l0 -144.32 85.89 0 0 -6.24 -93.3 0 0 150.56 7.41 0zm233.82 -150.56l-8.69 0 -55.3 104.54 -55.3 -104.54 -8.69 0 59.64 110.59 -6.16 11.51c-3.32,6.2 -8.06,14.55 -13.29,19.33 -4.48,4.09 -10.1,5.71 -16.09,5.71 -8.73,0 -15.85,-3.87 -21.6,-9.92l-3.77 5.22c6.54,7.85 15.47,10.93 25.84,10.93 7.13,0 14.12,-1.58 19.65,-6.32 6.42,-5.51 11.75,-14.07 15.74,-21.45l68.02 -125.6zm151.27 150.56l0 -150.56 -7.65 0 0 69.93 -105.23 0 0 -69.93 -7.4 0 0 150.56 7.4 0 0 -74.39 105.23 0 0 74.39 7.65 0zm166.09 0l-61.62 -150.56 -12.66 0 -61.62 150.56 9.03 0 15.48 -38.49 86.87 0 15.49 38.49 9.03 0zm-26.56 -44.72l-82.77 0 41.25 -102.47 41.52 102.47zm-1167.3 330.54l103.05 -140.6 0 140.6 7.41 0 0 -150.55 -9.12 0 -102.58 138.65 0 -138.65 -7.41 0 0 150.55 8.65 0zm339.16 -21.41l-6.06 -3.79c-5.19,6.43 -11.65,11.46 -19.07,15.24 -8.59,4.37 -17.76,6.54 -27.4,6.54 -19.05,0 -35.48,-6.53 -48.73,-20.27 -13.7,-14.21 -19.49,-31.87 -19.49,-51.47 0,-19.63 5.72,-37.39 19.49,-51.59 13.27,-13.69 29.71,-20.15 48.73,-20.15 9.64,0 18.81,2.16 27.4,6.54 7.4,3.78 13.86,8.8 19.05,15.21l6.12 -3.95c-13.78,-15.86 -31.15,-24.04 -52.57,-24.04 -21.13,0 -39.43,6.84 -54.45,21.78 -15.45,15.37 -21.89,34.58 -21.89,56.2 0,21.62 6.44,40.83 21.89,56.2 15.02,14.94 33.32,21.78 54.45,21.78 21.44,0 38.74,-8.39 52.53,-24.23zm82.23 21.41l0 -144.32 51.16 0 0 -6.23 -109.96 0 0 6.23 51.16 0 0 144.32 7.64 0zm190.03 0l-61.62 -150.55 -12.66 0 -61.62 150.55 9.03 0 15.48 -38.48 86.87 0 15.49 38.48 9.03 0zm-26.56 -44.72l-82.77 0 41.25 -102.47 41.52 102.47zm45.72 47.48c3.68,-0.14 7.41,-0.56 10.92,-1.49 4.21,-1.11 8.08,-3.44 11.46,-6.14 4.3,-3.42 7.53,-7.99 9.99,-12.85 3.59,-7.09 6.15,-15.26 8.23,-22.91 3.09,-11.34 5,-23.25 6.49,-34.91l8.78 -68.78 68.03 0 0 144.32 7.65 0 0 -150.55 -82.4 0 -9.75 74.6c-1.9,14.51 -4.56,30.59 -9.54,44.4 -2.69,7.46 -6.98,17.23 -13.41,22.22 -4.8,3.73 -10.52,5.41 -16.45,5.81l0 6.28zm184.88 -2.76l103.06 -140.6 0 140.6 7.4 0 0 -150.55 -9.12 0 -102.58 138.65 0 -138.65 -7.41 0 0 150.55 8.65 0z"/>
 </g>
</svg>
