<?xml version="1.0" encoding="UTF-8"?>
<!DOCTYPE svg PUBLIC "-//W3C//DTD SVG 1.1//EN" "http://www.w3.org/Graphics/SVG/1.1/DTD/svg11.dtd">
<!-- Creator: CorelDRAW 2021 (64-Bit) -->
<svg xmlns="http://www.w3.org/2000/svg" xml:space="preserve" width="968px" height="74px" version="1.1" style="shape-rendering:geometricPrecision; text-rendering:geometricPrecision; image-rendering:optimizeQuality; fill-rule:evenodd; clip-rule:evenodd"
viewBox="0 0 977.87 74.51"
 xmlns:xlink="http://www.w3.org/1999/xlink"
 xmlns:xodm="http://www.corel.com/coreldraw/odm/2003">
 <defs>
  <style type="text/css">
   <![CDATA[
    .str0 {stroke:#FEFEFE;stroke-width:6.31;stroke-linecap:round;stroke-miterlimit:22.9256}
    .fil0 {fill:none}
   ]]>
  </style>
 </defs>
 <g id="Слой_x0020_1">
  <metadata id="CorelCorpID_0Corel-Layer"/>
  <path class="fil0 str0" d="M32.52 3.33l-22.77 68.03m1.64 -46.97l44.61 0.03m-52.84 25.77l44.6 0.02m1.53 -46.88l-22.77 68.03m45.04 -68.13c0,22.32 0,44.62 0,66.95 0.26,0 0.52,0 0.86,-0.01 15.74,-21.9 31.45,-43.75 47.19,-65.66 0.28,0 0.56,0.01 0.84,0.01l0 66.84m470.22 -68.13c0,22.32 0,44.62 0,66.95 0.25,0 0.52,0 0.85,-0.01 15.75,-21.9 31.45,-43.75 47.2,-65.66 0.28,0 0.56,0.01 0.84,0.01l0 66.84m286.26 -68.13c0,22.32 0,44.62 0,66.95 0.26,0 0.52,0 0.85,-0.01 15.75,-21.9 31.45,-43.75 47.2,-65.66 0.28,0 0.56,0.01 0.84,0.01l0 66.84m-835.28 -57.16c1.46,-2.05 8.3,-8.85 19.11,-9.79 13.32,-1.16 22.54,6.51 23.61,14.79 1.09,8.49 -7.79,14.75 -17.42,16.8 -0.2,0.04 -9.32,0.04 -14.46,0.12 -3.08,0.05 -3.18,0.03 0,0.04 5.12,0.02 14.18,0.04 14.46,0.09 4.1,0.65 16.85,4.71 17.81,15.26 0.99,10.8 -6.59,17.53 -21.01,18.68 -14.42,1.14 -21.77,-8.82 -23.4,-10.46m102.09 -56.45l0 68.08m-40 -68.03c0.04,4.19 -0.25,17.93 0.74,23.55 0.67,3.79 3.14,9.98 11.98,12.33 8.84,2.35 21.41,-0.23 24.26,-0.88 2.86,-0.64 3.02,-0.68 3.02,-0.68m71.07 -34.36l-30.62 56.28c0,0 -3.88,9.57 -11.38,9.93 -7.51,0.36 -8.74,-1.42 -13.19,-4.82m176.24 -61.39l-30.63 56.28c0,0 -3.87,9.57 -11.38,9.93 -7.5,0.36 -8.73,-1.42 -13.18,-4.82m-118.77 -61.05l0.15 0.29 26.01 48.53m94.7 -49.15l26.35 49.15m-76.56 18.91l0 -65.51 40.13 0m80.8 -2.69l0 68.2m49.13 -68.11l0 68.11m-49.13 -34.89l49.13 0m279.35 34.89l27.78 -66.81 1.09 0 27.78 66.81m-318.68 0l27.78 -66.81 1.09 0 27.78 66.81m213.51 -19.54l40.24 0m-302.27 0l40.24 0m149.68 -35.85c0,0 -7.54,-12.88 -25.42,-10.77 -17.88,2.11 -26.05,14.01 -28.16,27.46 -2.11,13.45 4.84,29.01 18.44,34.94 13.6,5.94 28.95,0.39 35.44,-8.61m35.87 12.37l0 -65.67m-25.25 0l50.48 0m68.95 64.23c0,0 5.47,0.75 10.52,-3.54 5.04,-4.29 6.76,-14.6 8.05,-20.94 1.29,-6.33 5.37,-39.39 5.37,-39.39l32.8 -0.11 0.09 65.42"/>
 </g>
</svg>
